<svg width="46" height="46" viewBox="0 0 46 46" fill="none" xmlns="http://www.w3.org/2000/svg">
<rect width="46" height="46" rx="14" fill="#EEF4FF"/>
<circle cx="23" cy="23" r="23" fill="#EEF4FF"/>
<mask id="mask0_160_4104" style="mask-type:alpha" maskUnits="userSpaceOnUse" x="0" y="0" width="46" height="46">
<circle cx="23" cy="23" r="23" fill="#FFEDEF"/>
</mask>
<g mask="url(#mask0_160_4104)">
<g clip-path="url(#clip0_160_4104)">
<path d="M29.5359 43.8823C27.7928 41.4613 26.4289 36.7806 26.2675 34.4402L17.9754 30.8691L14.5254 43.8823H29.5359Z" fill="#AC6651" stroke="black" stroke-width="0.48421"/>
<mask id="mask1_160_4104" style="mask-type:alpha" maskUnits="userSpaceOnUse" x="14" y="30" width="455" height="432">
<path d="M468.757 461.292C416.008 388.028 374.736 209.755 369.852 138.934L118.925 30.8691L14.5254 461.292H468.757Z" fill="#AC6651"/>
</mask>
<g mask="url(#mask1_160_4104)">
<g style="mix-blend-mode:multiply">
<ellipse cx="25.9038" cy="30.6277" rx="7.1421" ry="6.53684" fill="black"/>
</g>
</g>
<mask id="path-7-inside-1_160_4104" fill="white">
<path fill-rule="evenodd" clip-rule="evenodd" d="M33.1716 23.55C33.1628 23.5109 33.1537 23.4719 33.1443 23.4328C33.135 23.3937 33.1254 23.3548 33.1156 23.316L31.1636 15.1688C31.1569 15.1398 31.1501 15.1108 31.1432 15.0818C29.9325 10.0286 24.8546 6.91369 19.8015 8.12438C14.7687 9.33018 11.6586 14.372 12.8297 19.4049L12.8291 19.405L14.8859 27.9898L14.8882 27.9892C16.1718 32.9407 21.1915 35.9713 26.187 34.7745C31.1825 33.5776 34.2837 28.6013 33.1841 23.6057L33.1849 23.6055L33.1716 23.55Z"/>
</mask>
<path fill-rule="evenodd" clip-rule="evenodd" d="M33.1716 23.55C33.1628 23.5109 33.1537 23.4719 33.1443 23.4328C33.135 23.3937 33.1254 23.3548 33.1156 23.316L31.1636 15.1688C31.1569 15.1398 31.1501 15.1108 31.1432 15.0818C29.9325 10.0286 24.8546 6.91369 19.8015 8.12438C14.7687 9.33018 11.6586 14.372 12.8297 19.4049L12.8291 19.405L14.8859 27.9898L14.8882 27.9892C16.1718 32.9407 21.1915 35.9713 26.187 34.7745C31.1825 33.5776 34.2837 28.6013 33.1841 23.6057L33.1849 23.6055L33.1716 23.55Z" fill="#AC6651"/>
<path d="M33.1716 23.55L32.6993 23.6569L32.7008 23.6628L33.1716 23.55ZM33.1443 23.4328L33.6152 23.32L33.6152 23.32L33.1443 23.4328ZM33.1156 23.316L32.6446 23.4288L32.6461 23.4347L33.1156 23.316ZM31.1636 15.1688L30.6916 15.2772L30.6927 15.2816L31.1636 15.1688ZM31.1432 15.0818L31.614 14.969L31.614 14.9689L31.1432 15.0818ZM19.8015 8.12438L19.9143 8.59526L19.8015 8.12438ZM12.8297 19.4049L12.9426 19.8757L13.4103 19.7635L13.3013 19.2951L12.8297 19.4049ZM12.8291 19.405L12.7161 18.9341L12.2454 19.0471L12.3582 19.5178L12.8291 19.405ZM14.8859 27.9898L14.415 28.1026L14.5278 28.5734L14.9986 28.4607L14.8859 27.9898ZM14.8882 27.9892L15.3569 27.8677L15.2377 27.4077L14.7755 27.5183L14.8882 27.9892ZM26.187 34.7745L26.0741 34.3036L26.187 34.7745ZM33.1841 23.6057L33.0715 23.1348L32.6089 23.2453L32.7112 23.7098L33.1841 23.6057ZM33.1849 23.6055L33.2975 24.0765L33.7687 23.9639L33.6558 23.4927L33.1849 23.6055ZM33.6439 23.4431C33.6346 23.402 33.625 23.361 33.6152 23.32L32.6734 23.5456C32.6823 23.5827 32.691 23.6198 32.6994 23.6569L33.6439 23.4431ZM33.6152 23.32C33.6054 23.279 33.5953 23.238 33.585 23.1973L32.6461 23.4347C32.6555 23.4715 32.6646 23.5085 32.6735 23.5456L33.6152 23.32ZM30.6927 15.2816L32.6447 23.4288L33.5865 23.2032L31.6345 15.056L30.6927 15.2816ZM31.6355 15.0603C31.6285 15.0299 31.6213 14.9994 31.614 14.969L30.6723 15.1946C30.6789 15.2221 30.6853 15.2497 30.6917 15.2772L31.6355 15.0603ZM31.614 14.9689C30.341 9.65573 25.0019 6.3805 19.6887 7.6535L19.9143 8.59526C24.7074 7.44688 29.5239 10.4015 30.6723 15.1946L31.614 14.9689ZM19.6887 7.6535C14.3969 8.92136 11.1267 14.2226 12.358 19.5146L13.3013 19.2951C12.1905 14.5213 15.1406 9.739 19.9143 8.59526L19.6887 7.6535ZM12.942 19.8758L12.9426 19.8757L12.7167 18.934L12.7161 18.9341L12.942 19.8758ZM15.3568 27.877L13.2999 19.2922L12.3582 19.5178L14.415 28.1026L15.3568 27.877ZM14.7755 27.5183L14.7731 27.5189L14.9986 28.4607L15.001 28.4601L14.7755 27.5183ZM14.4195 28.1107C15.7692 33.3172 21.0471 36.5038 26.2998 35.2453L26.0741 34.3036C21.3358 35.4389 16.5744 32.5642 15.3569 27.8677L14.4195 28.1107ZM26.2998 35.2453C31.5524 33.9869 34.8132 28.7545 33.657 23.5016L32.7112 23.7098C33.7542 28.4481 30.8125 33.1683 26.0741 34.3036L26.2998 35.2453ZM33.0724 23.1345L33.0715 23.1348L33.2966 24.0767L33.2975 24.0765L33.0724 23.1345ZM32.7008 23.6628L32.7141 23.7183L33.6558 23.4927L33.6425 23.4372L32.7008 23.6628Z" fill="black" mask="url(#path-7-inside-1_160_4104)"/>
</g>
<path d="M29.5263 26.1884C29.5057 25.9382 29.2498 25.7988 29.033 25.8843C28.5211 26.086 26.8276 26.7275 25.6336 26.8917C24.3235 27.072 22.3394 26.8531 21.7652 26.7818C21.5316 26.7528 21.3234 26.9535 21.3637 27.1974C21.4426 27.6747 21.6051 28.1348 21.8441 28.5563C22.1107 29.0265 22.4673 29.4396 22.8935 29.7719C23.3197 30.1043 23.8072 30.3495 24.3282 30.4934C24.8492 30.6374 25.3934 30.6773 25.9298 30.611C26.4662 30.5446 26.9843 30.3732 27.4545 30.1067C27.9246 29.8401 28.3377 29.4835 28.6701 29.0573C29.0024 28.631 29.2476 28.1435 29.3916 27.6226C29.5206 27.1557 29.566 26.6703 29.5263 26.1884Z" fill="black" stroke="black" stroke-width="0.48421"/>
<mask id="mask2_160_4104" style="mask-type:alpha" maskUnits="userSpaceOnUse" x="21" y="26" width="9" height="5">
<path d="M29.2688 26.0507C29.3313 26.5555 29.2937 27.0678 29.1582 27.5581C29.0227 28.0484 28.792 28.5072 28.4792 28.9084C28.1663 29.3095 27.7776 29.6451 27.3351 29.896C26.8925 30.1469 26.4049 30.3082 25.9001 30.3707C25.3952 30.4332 24.883 30.3956 24.3927 30.2601C23.9024 30.1246 23.4435 29.8938 23.0424 29.581C22.6412 29.2682 22.3056 28.8794 22.0547 28.4369C21.8038 27.9944 21.6425 27.5068 21.5801 27.002L29.2688 26.0507Z" fill="#171921"/>
</mask>
<g mask="url(#mask2_160_4104)">
<circle cx="25.967" cy="30.9079" r="2.60263" transform="rotate(-7.05286 25.967 30.9079)" fill="#FC909F"/>
</g>
<path opacity="0.35" d="M29.898 13.0953C28.9295 12.3206 27.255 12.248 26.569 12.3085L25.6006 9.10059C27.2469 9.48795 29.4743 12.0058 29.898 13.0953Z" fill="#717376"/>
<path d="M17.5266 5.17641C17.5266 5.17641 18.2212 4.69685 21.1526 3.9583C24.0841 3.21976 25.1529 3.50827 25.1529 3.50827L26.5799 12.3247C26.5799 12.3247 25.6068 12.3038 23.1865 12.8324C20.7663 13.361 19.6079 14.0025 19.6079 14.0025L17.5266 5.17641Z" fill="#171921"/>
<path d="M13.0714 14.2449C12.2483 9.20915 15.896 5.99319 17.5504 5.10547L19.6083 14.0028C17.2841 9.20915 14.1206 12.1669 13.0714 14.2449Z" fill="#171921"/>
<path opacity="0.35" d="M15.3106 19.5701C14.439 16.2775 17.9738 14.506 19.608 14.0016C18.7606 12.0245 16.8238 10.249 14.4632 12.428C12.2843 16.1201 13.1317 18.9649 13.7975 21.1438L15.3106 19.5701Z" fill="#717376"/>
<path d="M24.2435 21.6603C24.8754 21.4199 25.9774 21.4925 25.9095 22.715C25.8492 23.8016 24.7345 24.0173 24.3793 23.764" stroke="black" stroke-width="0.48421"/>
<path d="M15.0693 21.8112C14.7872 21.7184 14.4827 21.6689 14.1711 21.6689C12.9008 21.6689 11.8711 22.4558 11.9921 23.9084C12.1182 25.4216 13.0219 25.9663 14.2921 25.9663C14.4334 25.9663 14.5718 25.9539 14.7061 25.9301C14.8526 25.9042 14.9943 25.8647 15.1298 25.8131" stroke="#171921" stroke-width="0.968421"/>
<path d="M15.1903 25.7891C14.9144 25.9032 14.6108 25.9663 14.2921 25.9663C13.0219 25.9663 12.1182 25.4216 11.9921 23.9084C11.8711 22.4558 12.9008 21.6689 14.1711 21.6689C14.5509 21.6689 14.92 21.7423 15.2508 21.8783L15.1903 25.7891Z" fill="#AC6651"/>
<path d="M14.7064 22.6967C14.2222 22.4748 13.1569 22.3578 12.7695 23.6651" stroke="#171921" stroke-width="0.48421"/>
<path d="M13.4355 22.7578C13.6978 22.9797 14.1982 23.6657 14.1013 24.6341" stroke="#171921" stroke-width="0.48421"/>
<path d="M22.9721 43.528L23.1209 43.3371L22.9721 43.5281L23.1805 43.6904L23.3241 43.4687L23.3241 43.4686L23.3243 43.4683L23.3255 43.4665L23.3304 43.459L23.3508 43.4282C23.369 43.401 23.3963 43.3606 23.4319 43.3092C23.5032 43.2062 23.6078 43.0588 23.7404 42.8827C24.006 42.5298 24.3817 42.0638 24.8243 41.6082C25.2679 41.1514 25.7716 40.7123 26.2922 40.4068C26.8147 40.1001 27.3307 39.9414 27.8096 40.006C32.9469 40.6987 36.7274 42.9741 39.1814 46.3634H6.09777C8.07089 42.8115 10.8773 40.5507 15.4273 39.5133C15.6212 39.4691 15.8848 39.4825 16.2145 39.5592C16.5407 39.6351 16.9126 39.7684 17.3137 39.9447C18.1159 40.2973 19.0114 40.8114 19.8529 41.3441C20.6932 41.8759 21.4734 42.4222 22.0439 42.8359C22.3291 43.0426 22.5615 43.2159 22.7225 43.3375C22.803 43.3983 22.8656 43.4461 22.908 43.4786L22.9561 43.5157L22.9682 43.5251L22.9712 43.5274L22.9719 43.5279L22.9721 43.528Z" fill="#6BD9E9" stroke="black" stroke-width="0.48421"/>
<path d="M13.9951 39.8369L14.6206 37.5088C14.6459 37.4145 14.7679 37.3879 14.8337 37.4599C16.633 39.4288 18.9035 39.3516 19.6571 39.2613C19.7594 39.249 19.8395 39.3609 19.7914 39.4521L18.1987 42.4727C18.1743 42.519 18.1244 42.5445 18.0731 42.5338C17.5951 42.4342 15.2135 41.8521 14.0092 39.9315C13.9916 39.9034 13.9865 39.8689 13.9951 39.8369Z" fill="#D2EFF3" stroke="black" stroke-width="0.48421"/>
<path d="M29.8024 39.8246L28.4005 37.4662C28.3529 37.3861 28.2357 37.3875 28.185 37.4656C27.4905 38.5352 26.2927 39.0279 25.8739 39.1735C25.7985 39.1997 25.764 39.2892 25.8047 39.3578L27.4392 42.1196C27.4636 42.1608 27.5097 42.1832 27.5557 42.1701C27.8141 42.0965 28.7009 41.7256 29.8008 39.9505C29.8245 39.9123 29.8253 39.8632 29.8024 39.8246Z" fill="#D2EFF3" stroke="black" stroke-width="0.48421"/>
<path d="M20.8812 41.9454L19.7917 39.3428L18.9443 41.1586L20.8812 41.9454Z" fill="black" stroke="black" stroke-width="0.48421" stroke-linejoin="round"/>
<path d="M24.695 41.8243L25.7845 39.2217L26.6318 41.0375L24.695 41.8243Z" fill="black" stroke="black" stroke-width="0.48421" stroke-linejoin="round"/>
<path d="M16.1606 37.043L14.708 37.4061L15.9185 38.193L16.1606 37.043Z" fill="black" stroke="black" stroke-width="0.48421" stroke-linejoin="round"/>
<path d="M26.9946 37.043L28.3262 37.4061L27.4788 38.193L26.9946 37.043Z" fill="black" stroke="black" stroke-width="0.48421" stroke-linejoin="round"/>
</g>
<defs>
<clipPath id="clip0_160_4104">
<rect width="24.2105" height="38.7368" fill="white" transform="translate(10.8945 5.20605)"/>
</clipPath>
</defs>
</svg>
