<svg width="340" height="81" viewBox="0 0 340 81" fill="none" xmlns="http://www.w3.org/2000/svg">
<g clip-path="url(#clip0_160_4017)">
<rect width="340" height="81" fill="white"/>
<path d="M68.912 22.88V34H67.088V26.384L63.696 34H62.432L59.024 26.384V34H57.2V22.88H59.168L63.072 31.6L66.96 22.88H68.912ZM79.2454 25.184L73.8374 38.144H71.9494L73.7414 33.856L70.2694 25.184H72.3014L74.7814 31.904L77.3574 25.184H79.2454ZM88.4421 34.112C87.6955 34.112 87.0235 33.984 86.4261 33.728C85.8288 33.4613 85.3595 33.088 85.0181 32.608C84.6768 32.128 84.5061 31.568 84.5061 30.928H86.4581C86.5008 31.408 86.6875 31.8027 87.0181 32.112C87.3595 32.4213 87.8341 32.576 88.4421 32.576C89.0715 32.576 89.5621 32.4267 89.9141 32.128C90.2661 31.8187 90.4421 31.424 90.4421 30.944C90.4421 30.5707 90.3301 30.2667 90.1061 30.032C89.8928 29.7973 89.6208 29.616 89.2901 29.488C88.9701 29.36 88.5221 29.2213 87.9461 29.072C87.2208 28.88 86.6288 28.688 86.1701 28.496C85.7221 28.2933 85.3381 27.984 85.0181 27.568C84.6981 27.152 84.5381 26.5973 84.5381 25.904C84.5381 25.264 84.6981 24.704 85.0181 24.224C85.3381 23.744 85.7861 23.376 86.3621 23.12C86.9381 22.864 87.6048 22.736 88.3621 22.736C89.4395 22.736 90.3195 23.008 91.0021 23.552C91.6955 24.0853 92.0795 24.8213 92.1541 25.76H90.1381C90.1061 25.3547 89.9141 25.008 89.5621 24.72C89.2101 24.432 88.7461 24.288 88.1701 24.288C87.6475 24.288 87.2208 24.4213 86.8901 24.688C86.5595 24.9547 86.3941 25.3387 86.3941 25.84C86.3941 26.1813 86.4955 26.464 86.6981 26.688C86.9115 26.9013 87.1781 27.072 87.4981 27.2C87.8181 27.328 88.2555 27.4667 88.8101 27.616C89.5461 27.8187 90.1435 28.0213 90.6021 28.224C91.0715 28.4267 91.4661 28.7413 91.7861 29.168C92.1168 29.584 92.2821 30.144 92.2821 30.848C92.2821 31.4133 92.1275 31.9467 91.8181 32.448C91.5195 32.9493 91.0768 33.3547 90.4901 33.664C89.9141 33.9627 89.2315 34.112 88.4421 34.112ZM102.514 29.376C102.514 29.7067 102.493 30.0053 102.45 30.272H95.7144C95.7677 30.976 96.029 31.5413 96.4984 31.968C96.9677 32.3947 97.5437 32.608 98.2264 32.608C99.2077 32.608 99.901 32.1973 100.306 31.376H102.274C102.008 32.1867 101.522 32.8533 100.818 33.376C100.125 33.888 99.261 34.144 98.2264 34.144C97.3837 34.144 96.6264 33.9573 95.9544 33.584C95.293 33.2 94.7704 32.6667 94.3864 31.984C94.013 31.2907 93.8264 30.4907 93.8264 29.584C93.8264 28.6773 94.0077 27.8827 94.3704 27.2C94.7437 26.5067 95.261 25.9733 95.9224 25.6C96.5944 25.2267 97.3624 25.04 98.2264 25.04C99.0584 25.04 99.7997 25.2213 100.45 25.584C101.101 25.9467 101.608 26.4587 101.97 27.12C102.333 27.7707 102.514 28.5227 102.514 29.376ZM100.61 28.8C100.6 28.128 100.36 27.5893 99.8904 27.184C99.421 26.7787 98.8397 26.576 98.1464 26.576C97.517 26.576 96.9784 26.7787 96.5304 27.184C96.0824 27.5787 95.8157 28.1173 95.7304 28.8H100.61ZM107.509 34.144C106.816 34.144 106.192 34.0213 105.637 33.776C105.093 33.52 104.661 33.1787 104.341 32.752C104.021 32.3147 103.851 31.8293 103.829 31.296H105.717C105.749 31.6693 105.925 31.984 106.245 32.24C106.576 32.4853 106.987 32.608 107.477 32.608C107.989 32.608 108.384 32.512 108.661 32.32C108.949 32.1173 109.093 31.8613 109.093 31.552C109.093 31.2213 108.933 30.976 108.613 30.816C108.304 30.656 107.808 30.48 107.125 30.288C106.464 30.1067 105.925 29.9307 105.509 29.76C105.093 29.5893 104.731 29.328 104.421 28.976C104.123 28.624 103.973 28.16 103.973 27.584C103.973 27.1147 104.112 26.688 104.389 26.304C104.667 25.9093 105.061 25.6 105.573 25.376C106.096 25.152 106.693 25.04 107.365 25.04C108.368 25.04 109.173 25.296 109.781 25.808C110.4 26.3093 110.731 26.9973 110.773 27.872H108.949C108.917 27.4773 108.757 27.1627 108.469 26.928C108.181 26.6933 107.792 26.576 107.301 26.576C106.821 26.576 106.453 26.6667 106.197 26.848C105.941 27.0293 105.813 27.2693 105.813 27.568C105.813 27.8027 105.899 28 106.069 28.16C106.24 28.32 106.448 28.448 106.693 28.544C106.939 28.6293 107.301 28.7413 107.781 28.88C108.421 29.0507 108.944 29.2267 109.349 29.408C109.765 29.5787 110.123 29.8347 110.421 30.176C110.72 30.5173 110.875 30.9707 110.885 31.536C110.885 32.0373 110.747 32.4853 110.469 32.88C110.192 33.2747 109.797 33.584 109.285 33.808C108.784 34.032 108.192 34.144 107.509 34.144ZM116.056 34.144C115.363 34.144 114.739 34.0213 114.184 33.776C113.64 33.52 113.208 33.1787 112.888 32.752C112.568 32.3147 112.398 31.8293 112.376 31.296H114.264C114.296 31.6693 114.472 31.984 114.792 32.24C115.123 32.4853 115.534 32.608 116.024 32.608C116.536 32.608 116.931 32.512 117.208 32.32C117.496 32.1173 117.64 31.8613 117.64 31.552C117.64 31.2213 117.48 30.976 117.16 30.816C116.851 30.656 116.355 30.48 115.672 30.288C115.011 30.1067 114.472 29.9307 114.056 29.76C113.64 29.5893 113.278 29.328 112.968 28.976C112.67 28.624 112.52 28.16 112.52 27.584C112.52 27.1147 112.659 26.688 112.936 26.304C113.214 25.9093 113.608 25.6 114.12 25.376C114.643 25.152 115.24 25.04 115.912 25.04C116.915 25.04 117.72 25.296 118.328 25.808C118.947 26.3093 119.278 26.9973 119.32 27.872H117.496C117.464 27.4773 117.304 27.1627 117.016 26.928C116.728 26.6933 116.339 26.576 115.848 26.576C115.368 26.576 115 26.6667 114.744 26.848C114.488 27.0293 114.36 27.2693 114.36 27.568C114.36 27.8027 114.446 28 114.616 28.16C114.787 28.32 114.995 28.448 115.24 28.544C115.486 28.6293 115.848 28.7413 116.328 28.88C116.968 29.0507 117.491 29.2267 117.896 29.408C118.312 29.5787 118.67 29.8347 118.968 30.176C119.267 30.5173 119.422 30.9707 119.432 31.536C119.432 32.0373 119.294 32.4853 119.016 32.88C118.739 33.2747 118.344 33.584 117.832 33.808C117.331 34.032 116.739 34.144 116.056 34.144ZM122.331 24.016C122 24.016 121.723 23.904 121.499 23.68C121.275 23.456 121.163 23.1787 121.163 22.848C121.163 22.5173 121.275 22.24 121.499 22.016C121.723 21.792 122 21.68 122.331 21.68C122.651 21.68 122.923 21.792 123.147 22.016C123.371 22.24 123.483 22.5173 123.483 22.848C123.483 23.1787 123.371 23.456 123.147 23.68C122.923 23.904 122.651 24.016 122.331 24.016ZM123.227 25.184V34H121.403V25.184H123.227ZM129.446 34.144C128.614 34.144 127.862 33.9573 127.19 33.584C126.518 33.2 125.99 32.6667 125.606 31.984C125.222 31.2907 125.03 30.4907 125.03 29.584C125.03 28.688 125.227 27.8933 125.622 27.2C126.017 26.5067 126.555 25.9733 127.238 25.6C127.921 25.2267 128.683 25.04 129.526 25.04C130.369 25.04 131.131 25.2267 131.814 25.6C132.497 25.9733 133.035 26.5067 133.43 27.2C133.825 27.8933 134.022 28.688 134.022 29.584C134.022 30.48 133.819 31.2747 133.414 31.968C133.009 32.6613 132.454 33.2 131.75 33.584C131.057 33.9573 130.289 34.144 129.446 34.144ZM129.446 32.56C129.915 32.56 130.353 32.448 130.758 32.224C131.174 32 131.51 31.664 131.766 31.216C132.022 30.768 132.15 30.224 132.15 29.584C132.15 28.944 132.027 28.4053 131.782 27.968C131.537 27.52 131.211 27.184 130.806 26.96C130.401 26.736 129.963 26.624 129.494 26.624C129.025 26.624 128.587 26.736 128.182 26.96C127.787 27.184 127.473 27.52 127.238 27.968C127.003 28.4053 126.886 28.944 126.886 29.584C126.886 30.5333 127.126 31.2693 127.606 31.792C128.097 32.304 128.71 32.56 129.446 32.56ZM140.273 25.04C140.966 25.04 141.585 25.184 142.129 25.472C142.684 25.76 143.116 26.1867 143.425 26.752C143.734 27.3173 143.889 28 143.889 28.8V34H142.081V29.072C142.081 28.2827 141.884 27.68 141.489 27.264C141.094 26.8373 140.556 26.624 139.873 26.624C139.19 26.624 138.646 26.8373 138.241 27.264C137.846 27.68 137.649 28.2827 137.649 29.072V34H135.825V25.184H137.649V26.192C137.948 25.8293 138.326 25.5467 138.785 25.344C139.254 25.1413 139.75 25.04 140.273 25.04ZM149.416 34.144C148.722 34.144 148.098 34.0213 147.544 33.776C147 33.52 146.568 33.1787 146.248 32.752C145.928 32.3147 145.757 31.8293 145.736 31.296H147.624C147.656 31.6693 147.832 31.984 148.152 32.24C148.482 32.4853 148.893 32.608 149.384 32.608C149.896 32.608 150.29 32.512 150.568 32.32C150.856 32.1173 151 31.8613 151 31.552C151 31.2213 150.84 30.976 150.52 30.816C150.21 30.656 149.714 30.48 149.032 30.288C148.37 30.1067 147.832 29.9307 147.416 29.76C147 29.5893 146.637 29.328 146.328 28.976C146.029 28.624 145.88 28.16 145.88 27.584C145.88 27.1147 146.018 26.688 146.296 26.304C146.573 25.9093 146.968 25.6 147.48 25.376C148.002 25.152 148.6 25.04 149.272 25.04C150.274 25.04 151.08 25.296 151.688 25.808C152.306 26.3093 152.637 26.9973 152.68 27.872H150.856C150.824 27.4773 150.664 27.1627 150.376 26.928C150.088 26.6933 149.698 26.576 149.208 26.576C148.728 26.576 148.36 26.6667 148.104 26.848C147.848 27.0293 147.72 27.2693 147.72 27.568C147.72 27.8027 147.805 28 147.976 28.16C148.146 28.32 148.354 28.448 148.6 28.544C148.845 28.6293 149.208 28.7413 149.688 28.88C150.328 29.0507 150.85 29.2267 151.256 29.408C151.672 29.5787 152.029 29.8347 152.328 30.176C152.626 30.5173 152.781 30.9707 152.792 31.536C152.792 32.0373 152.653 32.4853 152.376 32.88C152.098 33.2747 151.704 33.584 151.192 33.808C150.69 34.032 150.098 34.144 149.416 34.144Z" fill="#333333"/>
<path d="M67.298 49.27V59H65.702V52.336L62.734 59H61.628L58.646 52.336V59H57.05V49.27H58.772L62.188 56.9L65.59 49.27H67.298ZM68.8637 55.108C68.8637 54.3333 69.0224 53.6473 69.3397 53.05C69.6664 52.4527 70.105 51.9907 70.6557 51.664C71.2157 51.328 71.8317 51.16 72.5037 51.16C73.1104 51.16 73.6377 51.2813 74.0857 51.524C74.543 51.7573 74.907 52.0513 75.1777 52.406V51.286H76.7877V59H75.1777V57.852C74.907 58.216 74.5384 58.5193 74.0717 58.762C73.605 59.0047 73.073 59.126 72.4757 59.126C71.813 59.126 71.2064 58.958 70.6557 58.622C70.105 58.2767 69.6664 57.8007 69.3397 57.194C69.0224 56.578 68.8637 55.8827 68.8637 55.108ZM75.1777 55.136C75.1777 54.604 75.0657 54.142 74.8417 53.75C74.627 53.358 74.3424 53.0593 73.9877 52.854C73.633 52.6487 73.2504 52.546 72.8397 52.546C72.429 52.546 72.0464 52.6487 71.6917 52.854C71.337 53.05 71.0477 53.344 70.8237 53.736C70.609 54.1187 70.5017 54.576 70.5017 55.108C70.5017 55.64 70.609 56.1067 70.8237 56.508C71.0477 56.9093 71.337 57.2173 71.6917 57.432C72.0557 57.6373 72.4384 57.74 72.8397 57.74C73.2504 57.74 73.633 57.6373 73.9877 57.432C74.3424 57.2267 74.627 56.928 74.8417 56.536C75.0657 56.1347 75.1777 55.668 75.1777 55.136ZM82.776 51.16C83.3827 51.16 83.924 51.286 84.4 51.538C84.8853 51.79 85.2633 52.1633 85.534 52.658C85.8047 53.1527 85.94 53.75 85.94 54.45V59H84.358V54.688C84.358 53.9973 84.1853 53.47 83.84 53.106C83.4947 52.7327 83.0233 52.546 82.426 52.546C81.8287 52.546 81.3527 52.7327 80.998 53.106C80.6527 53.47 80.48 53.9973 80.48 54.688V59H78.884V51.286H80.48V52.168C80.7413 51.8507 81.0727 51.6033 81.474 51.426C81.8847 51.2487 82.3187 51.16 82.776 51.16ZM87.4438 55.108C87.4438 54.3333 87.6024 53.6473 87.9198 53.05C88.2464 52.4527 88.6851 51.9907 89.2358 51.664C89.7958 51.328 90.4118 51.16 91.0838 51.16C91.6904 51.16 92.2178 51.2813 92.6658 51.524C93.1231 51.7573 93.4871 52.0513 93.7578 52.406V51.286H95.3678V59H93.7578V57.852C93.4871 58.216 93.1184 58.5193 92.6518 58.762C92.1851 59.0047 91.6531 59.126 91.0558 59.126C90.3931 59.126 89.7864 58.958 89.2358 58.622C88.6851 58.2767 88.2464 57.8007 87.9198 57.194C87.6024 56.578 87.4438 55.8827 87.4438 55.108ZM93.7578 55.136C93.7578 54.604 93.6458 54.142 93.4218 53.75C93.2071 53.358 92.9224 53.0593 92.5678 52.854C92.2131 52.6487 91.8304 52.546 91.4198 52.546C91.0091 52.546 90.6264 52.6487 90.2718 52.854C89.9171 53.05 89.6278 53.344 89.4038 53.736C89.1891 54.1187 89.0818 54.576 89.0818 55.108C89.0818 55.64 89.1891 56.1067 89.4038 56.508C89.6278 56.9093 89.9171 57.2173 90.2718 57.432C90.6358 57.6373 91.0184 57.74 91.4198 57.74C91.8304 57.74 92.2131 57.6373 92.5678 57.432C92.9224 57.2267 93.2071 56.928 93.4218 56.536C93.6458 56.1347 93.7578 55.668 93.7578 55.136ZM100.572 51.16C101.169 51.16 101.697 51.2813 102.154 51.524C102.621 51.7573 102.985 52.0513 103.246 52.406V51.286H104.856V59.126C104.856 59.8353 104.707 60.4653 104.408 61.016C104.109 61.576 103.675 62.0147 103.106 62.332C102.546 62.6493 101.874 62.808 101.09 62.808C100.045 62.808 99.1767 62.5607 98.4861 62.066C97.7954 61.5807 97.4034 60.918 97.3101 60.078H98.8921C99.0134 60.4793 99.2701 60.8013 99.6621 61.044C100.063 61.296 100.539 61.422 101.09 61.422C101.734 61.422 102.252 61.226 102.644 60.834C103.045 60.442 103.246 59.8727 103.246 59.126V57.838C102.975 58.202 102.607 58.51 102.14 58.762C101.683 59.0047 101.16 59.126 100.572 59.126C99.9001 59.126 99.2841 58.958 98.7241 58.622C98.1734 58.2767 97.7347 57.8007 97.4081 57.194C97.0907 56.578 96.9321 55.8827 96.9321 55.108C96.9321 54.3333 97.0907 53.6473 97.4081 53.05C97.7347 52.4527 98.1734 51.9907 98.7241 51.664C99.2841 51.328 99.9001 51.16 100.572 51.16ZM103.246 55.136C103.246 54.604 103.134 54.142 102.91 53.75C102.695 53.358 102.411 53.0593 102.056 52.854C101.701 52.6487 101.319 52.546 100.908 52.546C100.497 52.546 100.115 52.6487 99.7601 52.854C99.4054 53.05 99.1161 53.344 98.8921 53.736C98.6774 54.1187 98.5701 54.576 98.5701 55.108C98.5701 55.64 98.6774 56.1067 98.8921 56.508C99.1161 56.9093 99.4054 57.2173 99.7601 57.432C100.124 57.6373 100.507 57.74 100.908 57.74C101.319 57.74 101.701 57.6373 102.056 57.432C102.411 57.2267 102.695 56.928 102.91 56.536C103.134 56.1347 103.246 55.668 103.246 55.136ZM114.022 54.954C114.022 55.2433 114.004 55.5047 113.966 55.738H108.072C108.119 56.354 108.348 56.8487 108.758 57.222C109.169 57.5953 109.673 57.782 110.27 57.782C111.129 57.782 111.736 57.4227 112.09 56.704H113.812C113.579 57.4133 113.154 57.9967 112.538 58.454C111.932 58.902 111.176 59.126 110.27 59.126C109.533 59.126 108.87 58.9627 108.282 58.636C107.704 58.3 107.246 57.8333 106.91 57.236C106.584 56.6293 106.42 55.9293 106.42 55.136C106.42 54.3427 106.579 53.6473 106.896 53.05C107.223 52.4433 107.676 51.9767 108.254 51.65C108.842 51.3233 109.514 51.16 110.27 51.16C110.998 51.16 111.647 51.3187 112.216 51.636C112.786 51.9533 113.229 52.4013 113.546 52.98C113.864 53.5493 114.022 54.2073 114.022 54.954ZM112.356 54.45C112.347 53.862 112.137 53.3907 111.726 53.036C111.316 52.6813 110.807 52.504 110.2 52.504C109.65 52.504 109.178 52.6813 108.786 53.036C108.394 53.3813 108.161 53.8527 108.086 54.45H112.356ZM126.174 51.286L121.442 62.626H119.79L121.358 58.874L118.32 51.286H120.098L122.268 57.166L124.522 51.286H126.174ZM130.724 59.126C129.996 59.126 129.338 58.9627 128.75 58.636C128.162 58.3 127.7 57.8333 127.364 57.236C127.028 56.6293 126.86 55.9293 126.86 55.136C126.86 54.352 127.033 53.6567 127.378 53.05C127.723 52.4433 128.195 51.9767 128.792 51.65C129.389 51.3233 130.057 51.16 130.794 51.16C131.531 51.16 132.199 51.3233 132.796 51.65C133.393 51.9767 133.865 52.4433 134.21 53.05C134.555 53.6567 134.728 54.352 134.728 55.136C134.728 55.92 134.551 56.6153 134.196 57.222C133.841 57.8287 133.356 58.3 132.74 58.636C132.133 58.9627 131.461 59.126 130.724 59.126ZM130.724 57.74C131.135 57.74 131.517 57.642 131.872 57.446C132.236 57.25 132.53 56.956 132.754 56.564C132.978 56.172 133.09 55.696 133.09 55.136C133.09 54.576 132.983 54.1047 132.768 53.722C132.553 53.33 132.269 53.036 131.914 52.84C131.559 52.644 131.177 52.546 130.766 52.546C130.355 52.546 129.973 52.644 129.618 52.84C129.273 53.036 128.997 53.33 128.792 53.722C128.587 54.1047 128.484 54.576 128.484 55.136C128.484 55.9667 128.694 56.6107 129.114 57.068C129.543 57.516 130.08 57.74 130.724 57.74ZM143.292 51.286V59H141.696V58.09C141.444 58.4073 141.113 58.6593 140.702 58.846C140.301 59.0233 139.871 59.112 139.414 59.112C138.807 59.112 138.261 58.986 137.776 58.734C137.3 58.482 136.922 58.1087 136.642 57.614C136.371 57.1193 136.236 56.522 136.236 55.822V51.286H137.818V55.584C137.818 56.2747 137.991 56.8067 138.336 57.18C138.681 57.544 139.153 57.726 139.75 57.726C140.347 57.726 140.819 57.544 141.164 57.18C141.519 56.8067 141.696 56.2747 141.696 55.584V51.286H143.292ZM146.994 52.406C147.227 52.014 147.535 51.7107 147.918 51.496C148.31 51.272 148.772 51.16 149.304 51.16V52.812H148.898C148.272 52.812 147.796 52.9707 147.47 53.288C147.152 53.6053 146.994 54.156 146.994 54.94V59H145.398V51.286H146.994V52.406ZM161.477 54.954C161.477 55.2433 161.459 55.5047 161.421 55.738H155.527C155.574 56.354 155.803 56.8487 156.213 57.222C156.624 57.5953 157.128 57.782 157.725 57.782C158.584 57.782 159.191 57.4227 159.545 56.704H161.267C161.034 57.4133 160.609 57.9967 159.993 58.454C159.387 58.902 158.631 59.126 157.725 59.126C156.988 59.126 156.325 58.9627 155.737 58.636C155.159 58.3 154.701 57.8333 154.365 57.236C154.039 56.6293 153.875 55.9293 153.875 55.136C153.875 54.3427 154.034 53.6473 154.351 53.05C154.678 52.4433 155.131 51.9767 155.709 51.65C156.297 51.3233 156.969 51.16 157.725 51.16C158.453 51.16 159.102 51.3187 159.671 51.636C160.241 51.9533 160.684 52.4013 161.001 52.98C161.319 53.5493 161.477 54.2073 161.477 54.954ZM159.811 54.45C159.802 53.862 159.592 53.3907 159.181 53.036C158.771 52.6813 158.262 52.504 157.655 52.504C157.105 52.504 156.633 52.6813 156.241 53.036C155.849 53.3813 155.616 53.8527 155.541 54.45H159.811ZM166.03 57.572L168.214 51.286H169.908L166.968 59H165.064L162.138 51.286H163.846L166.03 57.572ZM178.184 54.954C178.184 55.2433 178.166 55.5047 178.128 55.738H172.234C172.281 56.354 172.51 56.8487 172.92 57.222C173.331 57.5953 173.835 57.782 174.432 57.782C175.291 57.782 175.898 57.4227 176.252 56.704H177.974C177.741 57.4133 177.316 57.9967 176.7 58.454C176.094 58.902 175.338 59.126 174.432 59.126C173.695 59.126 173.032 58.9627 172.444 58.636C171.866 58.3 171.408 57.8333 171.072 57.236C170.746 56.6293 170.582 55.9293 170.582 55.136C170.582 54.3427 170.741 53.6473 171.058 53.05C171.385 52.4433 171.838 51.9767 172.416 51.65C173.004 51.3233 173.676 51.16 174.432 51.16C175.16 51.16 175.809 51.3187 176.378 51.636C176.948 51.9533 177.391 52.4013 177.708 52.98C178.026 53.5493 178.184 54.2073 178.184 54.954ZM176.518 54.45C176.509 53.862 176.299 53.3907 175.888 53.036C175.478 52.6813 174.969 52.504 174.362 52.504C173.812 52.504 173.34 52.6813 172.948 53.036C172.556 53.3813 172.323 53.8527 172.248 54.45H176.518ZM183.647 51.16C184.254 51.16 184.795 51.286 185.271 51.538C185.756 51.79 186.134 52.1633 186.405 52.658C186.676 53.1527 186.811 53.75 186.811 54.45V59H185.229V54.688C185.229 53.9973 185.056 53.47 184.711 53.106C184.366 52.7327 183.894 52.546 183.297 52.546C182.7 52.546 182.224 52.7327 181.869 53.106C181.524 53.47 181.351 53.9973 181.351 54.688V59H179.755V51.286H181.351V52.168C181.612 51.8507 181.944 51.6033 182.345 51.426C182.756 51.2487 183.19 51.16 183.647 51.16ZM190.709 52.588V56.858C190.709 57.1473 190.774 57.3573 190.905 57.488C191.045 57.6093 191.278 57.67 191.605 57.67H192.585V59H191.325C190.606 59 190.056 58.832 189.673 58.496C189.29 58.16 189.099 57.614 189.099 56.858V52.588H188.189V51.286H189.099V49.368H190.709V51.286H192.585V52.588H190.709ZM201.039 59.126C200.311 59.126 199.653 58.9627 199.065 58.636C198.477 58.3 198.015 57.8333 197.679 57.236C197.343 56.6293 197.175 55.9293 197.175 55.136C197.175 54.352 197.347 53.6567 197.693 53.05C198.038 52.4433 198.509 51.9767 199.107 51.65C199.704 51.3233 200.371 51.16 201.109 51.16C201.846 51.16 202.513 51.3233 203.111 51.65C203.708 51.9767 204.179 52.4433 204.525 53.05C204.87 53.6567 205.043 54.352 205.043 55.136C205.043 55.92 204.865 56.6153 204.511 57.222C204.156 57.8287 203.671 58.3 203.055 58.636C202.448 58.9627 201.776 59.126 201.039 59.126ZM201.039 57.74C201.449 57.74 201.832 57.642 202.187 57.446C202.551 57.25 202.845 56.956 203.069 56.564C203.293 56.172 203.405 55.696 203.405 55.136C203.405 54.576 203.297 54.1047 203.083 53.722C202.868 53.33 202.583 53.036 202.229 52.84C201.874 52.644 201.491 52.546 201.081 52.546C200.67 52.546 200.287 52.644 199.933 52.84C199.587 53.036 199.312 53.33 199.107 53.722C198.901 54.1047 198.799 54.576 198.799 55.136C198.799 55.9667 199.009 56.6107 199.429 57.068C199.858 57.516 200.395 57.74 201.039 57.74ZM208.216 52.406C208.45 52.014 208.758 51.7107 209.14 51.496C209.532 51.272 209.994 51.16 210.526 51.16V52.812H210.12C209.495 52.812 209.019 52.9707 208.692 53.288C208.375 53.6053 208.216 54.156 208.216 54.94V59H206.62V51.286H208.216V52.406ZM218.43 59.126C217.823 59.126 217.277 59.0187 216.792 58.804C216.316 58.58 215.938 58.2813 215.658 57.908C215.378 57.5253 215.229 57.1007 215.21 56.634H216.862C216.89 56.9607 217.044 57.236 217.324 57.46C217.613 57.6747 217.973 57.782 218.402 57.782C218.85 57.782 219.195 57.698 219.438 57.53C219.69 57.3527 219.816 57.1287 219.816 56.858C219.816 56.5687 219.676 56.354 219.396 56.214C219.125 56.074 218.691 55.92 218.094 55.752C217.515 55.5933 217.044 55.4393 216.68 55.29C216.316 55.1407 215.999 54.912 215.728 54.604C215.467 54.296 215.336 53.89 215.336 53.386C215.336 52.9753 215.457 52.602 215.7 52.266C215.943 51.9207 216.288 51.65 216.736 51.454C217.193 51.258 217.716 51.16 218.304 51.16C219.181 51.16 219.886 51.384 220.418 51.832C220.959 52.2707 221.249 52.8727 221.286 53.638H219.69C219.662 53.2927 219.522 53.0173 219.27 52.812C219.018 52.6067 218.677 52.504 218.248 52.504C217.828 52.504 217.506 52.5833 217.282 52.742C217.058 52.9007 216.946 53.1107 216.946 53.372C216.946 53.5773 217.021 53.75 217.17 53.89C217.319 54.03 217.501 54.142 217.716 54.226C217.931 54.3007 218.248 54.3987 218.668 54.52C219.228 54.6693 219.685 54.8233 220.04 54.982C220.404 55.1313 220.717 55.3553 220.978 55.654C221.239 55.9527 221.375 56.3493 221.384 56.844C221.384 57.2827 221.263 57.6747 221.02 58.02C220.777 58.3653 220.432 58.636 219.984 58.832C219.545 59.028 219.027 59.126 218.43 59.126ZM230.179 54.954C230.179 55.2433 230.16 55.5047 230.123 55.738H224.229C224.275 56.354 224.504 56.8487 224.915 57.222C225.325 57.5953 225.829 57.782 226.427 57.782C227.285 57.782 227.892 57.4227 228.247 56.704H229.969C229.735 57.4133 229.311 57.9967 228.695 58.454C228.088 58.902 227.332 59.126 226.427 59.126C225.689 59.126 225.027 58.9627 224.439 58.636C223.86 58.3 223.403 57.8333 223.067 57.236C222.74 56.6293 222.577 55.9293 222.577 55.136C222.577 54.3427 222.735 53.6473 223.053 53.05C223.379 52.4433 223.832 51.9767 224.411 51.65C224.999 51.3233 225.671 51.16 226.427 51.16C227.155 51.16 227.803 51.3187 228.373 51.636C228.942 51.9533 229.385 52.4013 229.703 52.98C230.02 53.5493 230.179 54.2073 230.179 54.954ZM228.513 54.45C228.503 53.862 228.293 53.3907 227.883 53.036C227.472 52.6813 226.963 52.504 226.357 52.504C225.806 52.504 225.335 52.6813 224.943 53.036C224.551 53.3813 224.317 53.8527 224.243 54.45H228.513ZM234.549 59.126C233.943 59.126 233.397 59.0187 232.911 58.804C232.435 58.58 232.057 58.2813 231.777 57.908C231.497 57.5253 231.348 57.1007 231.329 56.634H232.981C233.009 56.9607 233.163 57.236 233.443 57.46C233.733 57.6747 234.092 57.782 234.521 57.782C234.969 57.782 235.315 57.698 235.557 57.53C235.809 57.3527 235.935 57.1287 235.935 56.858C235.935 56.5687 235.795 56.354 235.515 56.214C235.245 56.074 234.811 55.92 234.213 55.752C233.635 55.5933 233.163 55.4393 232.799 55.29C232.435 55.1407 232.118 54.912 231.847 54.604C231.586 54.296 231.455 53.89 231.455 53.386C231.455 52.9753 231.577 52.602 231.819 52.266C232.062 51.9207 232.407 51.65 232.855 51.454C233.313 51.258 233.835 51.16 234.423 51.16C235.301 51.16 236.005 51.384 236.537 51.832C237.079 52.2707 237.368 52.8727 237.405 53.638H235.809C235.781 53.2927 235.641 53.0173 235.389 52.812C235.137 52.6067 234.797 52.504 234.367 52.504C233.947 52.504 233.625 52.5833 233.401 52.742C233.177 52.9007 233.065 53.1107 233.065 53.372C233.065 53.5773 233.14 53.75 233.289 53.89C233.439 54.03 233.621 54.142 233.835 54.226C234.05 54.3007 234.367 54.3987 234.787 54.52C235.347 54.6693 235.805 54.8233 236.159 54.982C236.523 55.1313 236.836 55.3553 237.097 55.654C237.359 55.9527 237.494 56.3493 237.503 56.844C237.503 57.2827 237.382 57.6747 237.139 58.02C236.897 58.3653 236.551 58.636 236.103 58.832C235.665 59.028 235.147 59.126 234.549 59.126ZM242.028 59.126C241.421 59.126 240.875 59.0187 240.39 58.804C239.914 58.58 239.536 58.2813 239.256 57.908C238.976 57.5253 238.826 57.1007 238.808 56.634H240.46C240.488 56.9607 240.642 57.236 240.922 57.46C241.211 57.6747 241.57 57.782 242 57.782C242.448 57.782 242.793 57.698 243.036 57.53C243.288 57.3527 243.414 57.1287 243.414 56.858C243.414 56.5687 243.274 56.354 242.994 56.214C242.723 56.074 242.289 55.92 241.692 55.752C241.113 55.5933 240.642 55.4393 240.278 55.29C239.914 55.1407 239.596 54.912 239.326 54.604C239.064 54.296 238.934 53.89 238.934 53.386C238.934 52.9753 239.055 52.602 239.298 52.266C239.54 51.9207 239.886 51.65 240.334 51.454C240.791 51.258 241.314 51.16 241.902 51.16C242.779 51.16 243.484 51.384 244.016 51.832C244.557 52.2707 244.846 52.8727 244.884 53.638H243.288C243.26 53.2927 243.12 53.0173 242.868 52.812C242.616 52.6067 242.275 52.504 241.846 52.504C241.426 52.504 241.104 52.5833 240.88 52.742C240.656 52.9007 240.544 53.1107 240.544 53.372C240.544 53.5773 240.618 53.75 240.768 53.89C240.917 54.03 241.099 54.142 241.314 54.226C241.528 54.3007 241.846 54.3987 242.266 54.52C242.826 54.6693 243.283 54.8233 243.638 54.982C244.002 55.1313 244.314 55.3553 244.576 55.654C244.837 55.9527 244.972 56.3493 244.982 56.844C244.982 57.2827 244.86 57.6747 244.618 58.02C244.375 58.3653 244.03 58.636 243.582 58.832C243.143 59.028 242.625 59.126 242.028 59.126ZM247.518 50.264C247.229 50.264 246.986 50.166 246.79 49.97C246.594 49.774 246.496 49.5313 246.496 49.242C246.496 48.9527 246.594 48.71 246.79 48.514C246.986 48.318 247.229 48.22 247.518 48.22C247.798 48.22 248.036 48.318 248.232 48.514C248.428 48.71 248.526 48.9527 248.526 49.242C248.526 49.5313 248.428 49.774 248.232 49.97C248.036 50.166 247.798 50.264 247.518 50.264ZM248.302 51.286V59H246.706V51.286H248.302ZM253.744 59.126C253.016 59.126 252.358 58.9627 251.77 58.636C251.182 58.3 250.72 57.8333 250.384 57.236C250.048 56.6293 249.88 55.9293 249.88 55.136C249.88 54.352 250.052 53.6567 250.398 53.05C250.743 52.4433 251.214 51.9767 251.812 51.65C252.409 51.3233 253.076 51.16 253.814 51.16C254.551 51.16 255.218 51.3233 255.816 51.65C256.413 51.9767 256.884 52.4433 257.23 53.05C257.575 53.6567 257.748 54.352 257.748 55.136C257.748 55.92 257.57 56.6153 257.216 57.222C256.861 57.8287 256.376 58.3 255.76 58.636C255.153 58.9627 254.481 59.126 253.744 59.126ZM253.744 57.74C254.154 57.74 254.537 57.642 254.892 57.446C255.256 57.25 255.55 56.956 255.774 56.564C255.998 56.172 256.11 55.696 256.11 55.136C256.11 54.576 256.002 54.1047 255.788 53.722C255.573 53.33 255.288 53.036 254.934 52.84C254.579 52.644 254.196 52.546 253.786 52.546C253.375 52.546 252.992 52.644 252.638 52.84C252.292 53.036 252.017 53.33 251.812 53.722C251.606 54.1047 251.504 54.576 251.504 55.136C251.504 55.9667 251.714 56.6107 252.134 57.068C252.563 57.516 253.1 57.74 253.744 57.74ZM263.217 51.16C263.824 51.16 264.365 51.286 264.841 51.538C265.327 51.79 265.705 52.1633 265.975 52.658C266.246 53.1527 266.381 53.75 266.381 54.45V59H264.799V54.688C264.799 53.9973 264.627 53.47 264.281 53.106C263.936 52.7327 263.465 52.546 262.867 52.546C262.27 52.546 261.794 52.7327 261.439 53.106C261.094 53.47 260.921 53.9973 260.921 54.688V59H259.325V51.286H260.921V52.168C261.183 51.8507 261.514 51.6033 261.915 51.426C262.326 51.2487 262.76 51.16 263.217 51.16ZM269.061 59.098C268.772 59.098 268.529 59 268.333 58.804C268.137 58.608 268.039 58.3653 268.039 58.076C268.039 57.7867 268.137 57.544 268.333 57.348C268.529 57.152 268.772 57.054 269.061 57.054C269.341 57.054 269.579 57.152 269.775 57.348C269.971 57.544 270.069 57.7867 270.069 58.076C270.069 58.3653 269.971 58.608 269.775 58.804C269.579 59 269.341 59.098 269.061 59.098Z" fill="#999999"/>
<g clip-path="url(#clip1_160_4017)">
<path d="M309.29 35.7098C308.9 36.0998 308.9 36.7298 309.29 37.1198L313.17 40.9998L309.29 44.8798C308.9 45.2698 308.9 45.8998 309.29 46.2898C309.68 46.6798 310.31 46.6798 310.7 46.2898L315.29 41.6998C315.68 41.3098 315.68 40.6798 315.29 40.2898L310.7 35.6998C310.32 35.3198 309.68 35.3198 309.29 35.7098Z" fill="#999999"/>
</g>
<g clip-path="url(#clip2_160_4017)">
<path d="M32 39H24C23.45 39 23 39.45 23 40C23 40.55 23.45 41 24 41H32C32.55 41 33 40.55 33 40C33 39.45 32.55 39 32 39ZM35 32H34V31C34 30.45 33.55 30 33 30C32.45 30 32 30.45 32 31V32H24V31C24 30.45 23.55 30 23 30C22.45 30 22 30.45 22 31V32H21C19.89 32 19 32.9 19 34V48C19 49.1 19.89 50 21 50H35C36.1 50 37 49.1 37 48V34C37 32.9 36.1 32 35 32ZM34 48H22C21.45 48 21 47.55 21 47V37H35V47C35 47.55 34.55 48 34 48ZM29 43H24C23.45 43 23 43.45 23 44C23 44.55 23.45 45 24 45H29C29.55 45 30 44.55 30 44C30 43.45 29.55 43 29 43Z" fill="#0261FE"/>
</g>
</g>
<defs>
<clipPath id="clip0_160_4017">
<rect width="340" height="81" rx="12" fill="white"/>
</clipPath>
<clipPath id="clip1_160_4017">
<rect width="24" height="24" fill="white" transform="translate(300 29)"/>
</clipPath>
<clipPath id="clip2_160_4017">
<rect width="24" height="24" fill="white" transform="translate(16 29)"/>
</clipPath>
</defs>
</svg>
