<svg width="97" height="29" viewBox="0 0 97 29" fill="none" xmlns="http://www.w3.org/2000/svg">
<path fill-rule="evenodd" clip-rule="evenodd" d="M5.57579 5.61374C4.41691 6.7807 3.49764 8.16608 2.87046 9.69079C2.24328 11.2155 1.92047 12.8497 1.92047 14.5C1.92047 16.1503 2.24328 17.7845 2.87046 19.3092C3.49764 20.8339 4.41691 22.2193 5.57579 23.3863C6.73467 24.5532 8.11046 25.4789 9.62461 26.1105C11.1388 26.742 12.7616 27.0671 14.4005 27.0671C16.0394 27.0671 17.6623 26.742 19.1764 26.1105L19.9112 27.8967C18.1641 28.6254 16.2916 29.0005 14.4005 29.0005C12.5095 29.0005 10.6369 28.6254 8.88985 27.8967C7.14276 27.168 5.55531 26.0999 4.21814 24.7534C2.88097 23.4069 1.82027 21.8084 1.0966 20.0491C0.372931 18.2898 0.000462902 16.4042 0.000463409 14.5C0.000463916 12.5958 0.372932 10.7102 1.0966 8.95091C1.82027 7.19163 2.88097 5.59311 4.21814 4.24662C5.55531 2.90012 7.14276 1.83203 8.88985 1.10331C10.637 0.374595 12.5095 -0.00047008 14.4005 -0.000471271C16.2916 -0.000469569 18.1641 0.374595 19.9112 1.10331C21.6583 1.83203 23.2457 2.90013 24.5829 4.24662C25.9201 5.59311 26.9808 7.19163 27.7044 8.95091C28.4281 10.7102 28.8006 12.5958 28.8006 14.5C28.8006 16.4042 28.4281 18.2898 27.7044 20.0491L25.9306 19.3092C26.5578 17.7845 26.8806 16.1503 26.8806 14.5C26.8806 12.8497 26.5578 11.2155 25.9306 9.69079C25.3034 8.16608 24.3841 6.7807 23.2252 5.61374C22.0664 4.44678 20.6906 3.52109 19.1764 2.88954C17.6623 2.25798 16.0394 1.93293 14.4005 1.93293C12.7616 1.93292 11.1388 2.25798 9.62461 2.88954C8.11046 3.52109 6.73467 4.44678 5.57579 5.61374Z" fill="#0261FE"/>
<path fill-rule="evenodd" clip-rule="evenodd" d="M8.29136 8.34797C7.48906 9.15587 6.85264 10.115 6.41844 11.1705C5.98424 12.2261 5.76075 13.3575 5.76075 14.5C5.76075 15.6425 5.98424 16.7739 6.41844 17.8295C6.85264 18.885 7.48906 19.8441 8.29136 20.652C9.09366 21.4599 10.0461 22.1008 11.0944 22.538C12.1426 22.9752 13.2662 23.2003 14.4008 23.2003C15.5354 23.2003 16.6589 22.9752 17.7072 22.538L17.9527 22.4356L23.0361 23.1956L22.2814 18.0767L22.3831 17.8295C22.8173 16.7739 23.0408 15.6425 23.0408 14.5C23.0408 13.3575 22.8173 12.2261 22.3831 11.1705C21.9489 10.115 21.3125 9.15587 20.5102 8.34797C19.7079 7.54008 18.7554 6.89922 17.7072 6.46199C16.6589 6.02476 15.5354 5.79972 14.4008 5.79972C13.2662 5.79972 12.1426 6.02476 11.0944 6.46199C10.0461 6.89922 9.09366 7.54007 8.29136 8.34797ZM4.64458 10.4307C5.17527 9.14053 5.95312 7.96828 6.93371 6.98085C7.9143 5.99343 9.07843 5.21016 10.3596 4.67576C11.6408 4.14137 13.014 3.86632 14.4008 3.86632C15.7875 3.86632 17.1607 4.14137 18.4419 4.67576C19.7231 5.21016 20.8873 5.99343 21.8679 6.98086C22.8484 7.96828 23.6263 9.14053 24.157 10.4307C24.6877 11.7208 24.9608 13.1036 24.9608 14.5C24.9608 15.8052 24.7222 17.0985 24.2577 18.3154L25.3156 25.4909L18.1897 24.4256C16.9813 24.8934 15.697 25.1337 14.4008 25.1337C13.014 25.1337 11.6408 24.8586 10.3596 24.3242C9.07843 23.7898 7.9143 23.0066 6.93371 22.0191C5.95312 21.0317 5.17527 19.8595 4.64458 18.5693C4.11389 17.2792 3.84075 15.8964 3.84075 14.5C3.84075 13.1036 4.11389 11.7208 4.64458 10.4307Z" fill="#0261FE"/>
<path d="M11.712 14.5C11.712 15.1407 11.1962 15.66 10.56 15.66C9.92378 15.66 9.40801 15.1407 9.40801 14.5C9.40801 13.8593 9.92378 13.34 10.56 13.34C11.1962 13.34 11.712 13.8593 11.712 14.5Z" fill="#0261FE"/>
<path d="M15.5516 14.5C15.5516 15.1407 15.0359 15.66 14.3996 15.66C13.7634 15.66 13.2476 15.1407 13.2476 14.5C13.2476 13.8593 13.7634 13.34 14.3996 13.34C15.0359 13.34 15.5516 13.8593 15.5516 14.5Z" fill="#0261FE"/>
<path d="M19.3922 14.5C19.3922 15.1407 18.8765 15.66 18.2402 15.66C17.604 15.66 17.0882 15.1407 17.0882 14.5C17.0882 13.8593 17.604 13.34 18.2402 13.34C18.8765 13.34 19.3922 13.8593 19.3922 14.5Z" fill="#0261FE"/>
<path d="M46.8522 20.8717H49.48V10.0088H46.8522V14.2642H42.7645V10.0088H40.1368V20.8717H42.7645V16.3997H46.8522V20.8717Z" fill="black"/>
<path d="M55.1573 14.2333C56.0332 14.2333 56.7708 14.7749 56.7708 15.7188H53.4822C53.6359 14.7594 54.2967 14.2333 55.1573 14.2333ZM59.2603 18.009H56.4635C56.2483 18.4732 55.8334 18.8446 55.0958 18.8446C54.2506 18.8446 53.5591 18.3185 53.4669 17.1888H59.4139C59.4447 16.9258 59.46 16.6627 59.46 16.4151C59.46 13.7845 57.6928 12.1133 55.188 12.1133C52.6371 12.1133 50.8545 13.8155 50.8545 16.5544C50.8545 19.2933 52.6678 20.9955 55.188 20.9955C57.324 20.9955 58.8454 19.6957 59.2603 18.009Z" fill="black"/>
<path d="M60.8463 20.8717H63.4741V9.42078H60.8463V20.8717Z" fill="black"/>
<path d="M68.0062 13.4596V12.2371H65.3784V24.9879H68.0062V19.6647C68.4826 20.392 69.3892 20.9955 70.6493 20.9955C72.7546 20.9955 74.4296 19.2624 74.4296 16.5389C74.4296 13.8155 72.7546 12.1133 70.6493 12.1133C69.3892 12.1133 68.4826 12.7013 68.0062 13.4596ZM71.7557 16.5389C71.7557 17.9161 70.8645 18.6898 69.8656 18.6898C68.8821 18.6898 67.9908 17.9316 67.9908 16.5544C67.9908 15.1772 68.8821 14.419 69.8656 14.419C70.8645 14.419 71.7557 15.1617 71.7557 16.5389Z" fill="black"/>
<path d="M79.5885 14.2333C80.4644 14.2333 81.2021 14.7749 81.2021 15.7188H77.9135C78.0672 14.7594 78.728 14.2333 79.5885 14.2333ZM83.6915 18.009H80.8947C80.6796 18.4732 80.2647 18.8446 79.527 18.8446C78.6819 18.8446 77.9903 18.3185 77.8981 17.1888H83.8452C83.8759 16.9258 83.8913 16.6627 83.8913 16.4151C83.8913 13.7845 82.1241 12.1133 79.6192 12.1133C77.0683 12.1133 75.2857 13.8155 75.2857 16.5544C75.2857 19.2933 77.099 20.9955 79.6192 20.9955C81.7553 20.9955 83.2766 19.6957 83.6915 18.009Z" fill="black"/>
<path d="M87.9053 16.8639C87.9053 15.3784 88.6276 14.9451 89.8723 14.9451H90.5946V12.1442C89.4421 12.1442 88.5047 12.7632 87.9053 13.6762V12.2371H85.2776V20.8717H87.9053V16.8639Z" fill="black"/>
<path d="M92.2655 17.8697C92.2655 20.1135 93.5102 20.8717 95.2928 20.8717H96.6298V18.628H95.6924C95.1084 18.628 94.8933 18.4113 94.8933 17.9007V14.4344H96.6144V12.2371H94.8933V10.1326H92.2655V12.2371H91.2206V14.4344H92.2655V17.8697Z" fill="black"/>
</svg>
